<mxfile host="app.diagrams.net" modified="2022-01-08T04:15:05.253Z" agent="5.0 (Windows NT 10.0; Win64; x64) AppleWebKit/537.36 (KHTML, like Gecko) Chrome/96.0.4664.110 Safari/537.36 Edg/96.0.1054.62" etag="95mi2xUcAO3tq6dWxtxl" version="16.2.2" type="github">
  <diagram id="JeGC2FpYWqdpxXcLUjXS" name="Page-1">
    <mxGraphModel dx="782" dy="478" grid="1" gridSize="10" guides="1" tooltips="1" connect="1" arrows="1" fold="1" page="1" pageScale="1" pageWidth="850" pageHeight="1100" math="0" shadow="0">
      <root>
        <mxCell id="0" />
        <mxCell id="1" parent="0" />
        <mxCell id="XIhu3GL4m-_eAm_SvoiQ-1" value="user" style="swimlane;fontStyle=0;childLayout=stackLayout;horizontal=1;startSize=30;horizontalStack=0;resizeParent=1;resizeParentMax=0;resizeLast=0;collapsible=1;marginBottom=0;fillColor=#f8cecc;strokeColor=#b85450;" vertex="1" parent="1">
          <mxGeometry x="300" y="80" width="140" height="120" as="geometry" />
        </mxCell>
        <mxCell id="XIhu3GL4m-_eAm_SvoiQ-2" value="id" style="text;strokeColor=#b85450;fillColor=#f8cecc;align=left;verticalAlign=middle;spacingLeft=4;spacingRight=4;overflow=hidden;points=[[0,0.5],[1,0.5]];portConstraint=eastwest;rotatable=0;" vertex="1" parent="XIhu3GL4m-_eAm_SvoiQ-1">
          <mxGeometry y="30" width="140" height="30" as="geometry" />
        </mxCell>
        <mxCell id="XIhu3GL4m-_eAm_SvoiQ-3" value="nama" style="text;strokeColor=#b85450;fillColor=#f8cecc;align=left;verticalAlign=middle;spacingLeft=4;spacingRight=4;overflow=hidden;points=[[0,0.5],[1,0.5]];portConstraint=eastwest;rotatable=0;" vertex="1" parent="XIhu3GL4m-_eAm_SvoiQ-1">
          <mxGeometry y="60" width="140" height="30" as="geometry" />
        </mxCell>
        <mxCell id="XIhu3GL4m-_eAm_SvoiQ-4" value="password" style="text;strokeColor=#b85450;fillColor=#f8cecc;align=left;verticalAlign=middle;spacingLeft=4;spacingRight=4;overflow=hidden;points=[[0,0.5],[1,0.5]];portConstraint=eastwest;rotatable=0;" vertex="1" parent="XIhu3GL4m-_eAm_SvoiQ-1">
          <mxGeometry y="90" width="140" height="30" as="geometry" />
        </mxCell>
        <mxCell id="XIhu3GL4m-_eAm_SvoiQ-5" value="dim_payments" style="swimlane;fontStyle=0;childLayout=stackLayout;horizontal=1;startSize=30;horizontalStack=0;resizeParent=1;resizeParentMax=0;resizeLast=0;collapsible=1;marginBottom=0;fillColor=#66FF66;strokeColor=#82b366;" vertex="1" parent="1">
          <mxGeometry x="40" y="250" width="140" height="240" as="geometry" />
        </mxCell>
        <mxCell id="XIhu3GL4m-_eAm_SvoiQ-7" value="id" style="text;strokeColor=#82b366;fillColor=#66FF66;align=left;verticalAlign=middle;spacingLeft=4;spacingRight=4;overflow=hidden;points=[[0,0.5],[1,0.5]];portConstraint=eastwest;rotatable=0;" vertex="1" parent="XIhu3GL4m-_eAm_SvoiQ-5">
          <mxGeometry y="30" width="140" height="30" as="geometry" />
        </mxCell>
        <mxCell id="XIhu3GL4m-_eAm_SvoiQ-8" value="customerName	" style="text;strokeColor=#82b366;fillColor=#66FF66;align=left;verticalAlign=middle;spacingLeft=4;spacingRight=4;overflow=hidden;points=[[0,0.5],[1,0.5]];portConstraint=eastwest;rotatable=0;" vertex="1" parent="XIhu3GL4m-_eAm_SvoiQ-5">
          <mxGeometry y="60" width="140" height="30" as="geometry" />
        </mxCell>
        <mxCell id="XIhu3GL4m-_eAm_SvoiQ-29" value="orderDate" style="text;strokeColor=#82b366;fillColor=#66FF66;align=left;verticalAlign=middle;spacingLeft=4;spacingRight=4;overflow=hidden;points=[[0,0.5],[1,0.5]];portConstraint=eastwest;rotatable=0;" vertex="1" parent="XIhu3GL4m-_eAm_SvoiQ-5">
          <mxGeometry y="90" width="140" height="30" as="geometry" />
        </mxCell>
        <mxCell id="XIhu3GL4m-_eAm_SvoiQ-30" value="paymentDate" style="text;strokeColor=#82b366;fillColor=#66FF66;align=left;verticalAlign=middle;spacingLeft=4;spacingRight=4;overflow=hidden;points=[[0,0.5],[1,0.5]];portConstraint=eastwest;rotatable=0;" vertex="1" parent="XIhu3GL4m-_eAm_SvoiQ-5">
          <mxGeometry y="120" width="140" height="30" as="geometry" />
        </mxCell>
        <mxCell id="XIhu3GL4m-_eAm_SvoiQ-31" value="amount	" style="text;strokeColor=#82b366;fillColor=#66FF66;align=left;verticalAlign=middle;spacingLeft=4;spacingRight=4;overflow=hidden;points=[[0,0.5],[1,0.5]];portConstraint=eastwest;rotatable=0;" vertex="1" parent="XIhu3GL4m-_eAm_SvoiQ-5">
          <mxGeometry y="150" width="140" height="30" as="geometry" />
        </mxCell>
        <mxCell id="XIhu3GL4m-_eAm_SvoiQ-32" value="status" style="text;strokeColor=#82b366;fillColor=#66FF66;align=left;verticalAlign=middle;spacingLeft=4;spacingRight=4;overflow=hidden;points=[[0,0.5],[1,0.5]];portConstraint=eastwest;rotatable=0;" vertex="1" parent="XIhu3GL4m-_eAm_SvoiQ-5">
          <mxGeometry y="180" width="140" height="30" as="geometry" />
        </mxCell>
        <mxCell id="XIhu3GL4m-_eAm_SvoiQ-35" value="idPayments" style="text;strokeColor=#82b366;fillColor=#66FF66;align=left;verticalAlign=middle;spacingLeft=4;spacingRight=4;overflow=hidden;points=[[0,0.5],[1,0.5]];portConstraint=eastwest;rotatable=0;" vertex="1" parent="XIhu3GL4m-_eAm_SvoiQ-5">
          <mxGeometry y="210" width="140" height="30" as="geometry" />
        </mxCell>
        <mxCell id="XIhu3GL4m-_eAm_SvoiQ-9" value="dim_office" style="swimlane;fontStyle=0;childLayout=stackLayout;horizontal=1;startSize=30;horizontalStack=0;resizeParent=1;resizeParentMax=0;resizeLast=0;collapsible=1;marginBottom=0;fillColor=#66FF66;strokeColor=#82b366;" vertex="1" parent="1">
          <mxGeometry x="490" y="510" width="140" height="210" as="geometry" />
        </mxCell>
        <mxCell id="XIhu3GL4m-_eAm_SvoiQ-10" value="KodeKantor" style="text;strokeColor=#82b366;fillColor=#66FF66;align=left;verticalAlign=middle;spacingLeft=4;spacingRight=4;overflow=hidden;points=[[0,0.5],[1,0.5]];portConstraint=eastwest;rotatable=0;" vertex="1" parent="XIhu3GL4m-_eAm_SvoiQ-9">
          <mxGeometry y="30" width="140" height="30" as="geometry" />
        </mxCell>
        <mxCell id="XIhu3GL4m-_eAm_SvoiQ-11" value="id" style="text;strokeColor=#82b366;fillColor=#66FF66;align=left;verticalAlign=middle;spacingLeft=4;spacingRight=4;overflow=hidden;points=[[0,0.5],[1,0.5]];portConstraint=eastwest;rotatable=0;" vertex="1" parent="XIhu3GL4m-_eAm_SvoiQ-9">
          <mxGeometry y="60" width="140" height="30" as="geometry" />
        </mxCell>
        <mxCell id="XIhu3GL4m-_eAm_SvoiQ-24" value="namaPegawai" style="text;strokeColor=#82b366;fillColor=#66FF66;align=left;verticalAlign=middle;spacingLeft=4;spacingRight=4;overflow=hidden;points=[[0,0.5],[1,0.5]];portConstraint=eastwest;rotatable=0;" vertex="1" parent="XIhu3GL4m-_eAm_SvoiQ-9">
          <mxGeometry y="90" width="140" height="30" as="geometry" />
        </mxCell>
        <mxCell id="XIhu3GL4m-_eAm_SvoiQ-12" value="alamatKantor" style="text;strokeColor=#82b366;fillColor=#66FF66;align=left;verticalAlign=middle;spacingLeft=4;spacingRight=4;overflow=hidden;points=[[0,0.5],[1,0.5]];portConstraint=eastwest;rotatable=0;" vertex="1" parent="XIhu3GL4m-_eAm_SvoiQ-9">
          <mxGeometry y="120" width="140" height="30" as="geometry" />
        </mxCell>
        <mxCell id="XIhu3GL4m-_eAm_SvoiQ-27" value="pekerjaan" style="text;strokeColor=#82b366;fillColor=#66FF66;align=left;verticalAlign=middle;spacingLeft=4;spacingRight=4;overflow=hidden;points=[[0,0.5],[1,0.5]];portConstraint=eastwest;rotatable=0;" vertex="1" parent="XIhu3GL4m-_eAm_SvoiQ-9">
          <mxGeometry y="150" width="140" height="30" as="geometry" />
        </mxCell>
        <mxCell id="XIhu3GL4m-_eAm_SvoiQ-28" value="jumlahCustomer" style="text;strokeColor=#82b366;fillColor=#66FF66;align=left;verticalAlign=middle;spacingLeft=4;spacingRight=4;overflow=hidden;points=[[0,0.5],[1,0.5]];portConstraint=eastwest;rotatable=0;" vertex="1" parent="XIhu3GL4m-_eAm_SvoiQ-9">
          <mxGeometry y="180" width="140" height="30" as="geometry" />
        </mxCell>
        <mxCell id="XIhu3GL4m-_eAm_SvoiQ-13" value="dim_product" style="swimlane;fontStyle=0;childLayout=stackLayout;horizontal=1;startSize=30;horizontalStack=0;resizeParent=1;resizeParentMax=0;resizeLast=0;collapsible=1;marginBottom=0;fillColor=#66FF66;strokeColor=#82b366;" vertex="1" parent="1">
          <mxGeometry x="530" y="240" width="140" height="210" as="geometry" />
        </mxCell>
        <mxCell id="XIhu3GL4m-_eAm_SvoiQ-14" value="id" style="text;strokeColor=#82b366;fillColor=#66FF66;align=left;verticalAlign=middle;spacingLeft=4;spacingRight=4;overflow=hidden;points=[[0,0.5],[1,0.5]];portConstraint=eastwest;rotatable=0;" vertex="1" parent="XIhu3GL4m-_eAm_SvoiQ-13">
          <mxGeometry y="30" width="140" height="30" as="geometry" />
        </mxCell>
        <mxCell id="XIhu3GL4m-_eAm_SvoiQ-15" value="kategori&#xa;" style="text;strokeColor=#82b366;fillColor=#66FF66;align=left;verticalAlign=middle;spacingLeft=4;spacingRight=4;overflow=hidden;points=[[0,0.5],[1,0.5]];portConstraint=eastwest;rotatable=0;" vertex="1" parent="XIhu3GL4m-_eAm_SvoiQ-13">
          <mxGeometry y="60" width="140" height="30" as="geometry" />
        </mxCell>
        <mxCell id="XIhu3GL4m-_eAm_SvoiQ-16" value="productName" style="text;strokeColor=#82b366;fillColor=#66FF66;align=left;verticalAlign=middle;spacingLeft=4;spacingRight=4;overflow=hidden;points=[[0,0.5],[1,0.5]];portConstraint=eastwest;rotatable=0;" vertex="1" parent="XIhu3GL4m-_eAm_SvoiQ-13">
          <mxGeometry y="90" width="140" height="30" as="geometry" />
        </mxCell>
        <mxCell id="XIhu3GL4m-_eAm_SvoiQ-36" value="productVendor" style="text;strokeColor=#82b366;fillColor=#66FF66;align=left;verticalAlign=middle;spacingLeft=4;spacingRight=4;overflow=hidden;points=[[0,0.5],[1,0.5]];portConstraint=eastwest;rotatable=0;" vertex="1" parent="XIhu3GL4m-_eAm_SvoiQ-13">
          <mxGeometry y="120" width="140" height="30" as="geometry" />
        </mxCell>
        <mxCell id="XIhu3GL4m-_eAm_SvoiQ-37" value="hargaSatuan(jt)" style="text;strokeColor=#82b366;fillColor=#66FF66;align=left;verticalAlign=middle;spacingLeft=4;spacingRight=4;overflow=hidden;points=[[0,0.5],[1,0.5]];portConstraint=eastwest;rotatable=0;" vertex="1" parent="XIhu3GL4m-_eAm_SvoiQ-13">
          <mxGeometry y="150" width="140" height="30" as="geometry" />
        </mxCell>
        <mxCell id="XIhu3GL4m-_eAm_SvoiQ-38" value="idProduct" style="text;strokeColor=#82b366;fillColor=#66FF66;align=left;verticalAlign=middle;spacingLeft=4;spacingRight=4;overflow=hidden;points=[[0,0.5],[1,0.5]];portConstraint=eastwest;rotatable=0;" vertex="1" parent="XIhu3GL4m-_eAm_SvoiQ-13">
          <mxGeometry y="180" width="140" height="30" as="geometry" />
        </mxCell>
        <mxCell id="XIhu3GL4m-_eAm_SvoiQ-17" value="" style="endArrow=classic;html=1;rounded=0;exitX=0.476;exitY=1.089;exitDx=0;exitDy=0;exitPerimeter=0;entryX=0.5;entryY=0;entryDx=0;entryDy=0;" edge="1" parent="1" source="XIhu3GL4m-_eAm_SvoiQ-4" target="XIhu3GL4m-_eAm_SvoiQ-5">
          <mxGeometry width="50" height="50" relative="1" as="geometry">
            <mxPoint x="380" y="270" as="sourcePoint" />
            <mxPoint x="200" y="250" as="targetPoint" />
            <Array as="points" />
          </mxGeometry>
        </mxCell>
        <mxCell id="XIhu3GL4m-_eAm_SvoiQ-18" value="" style="endArrow=classic;html=1;rounded=0;entryX=0.5;entryY=0;entryDx=0;entryDy=0;" edge="1" parent="1" target="XIhu3GL4m-_eAm_SvoiQ-9">
          <mxGeometry width="50" height="50" relative="1" as="geometry">
            <mxPoint x="370" y="200" as="sourcePoint" />
            <mxPoint x="420" y="230" as="targetPoint" />
          </mxGeometry>
        </mxCell>
        <mxCell id="XIhu3GL4m-_eAm_SvoiQ-19" value="" style="endArrow=classic;html=1;rounded=0;entryX=0.5;entryY=0;entryDx=0;entryDy=0;exitX=0.529;exitY=1.067;exitDx=0;exitDy=0;exitPerimeter=0;" edge="1" parent="1" source="XIhu3GL4m-_eAm_SvoiQ-4" target="XIhu3GL4m-_eAm_SvoiQ-13">
          <mxGeometry width="50" height="50" relative="1" as="geometry">
            <mxPoint x="400" y="260" as="sourcePoint" />
            <mxPoint x="450" y="210" as="targetPoint" />
          </mxGeometry>
        </mxCell>
        <mxCell id="XIhu3GL4m-_eAm_SvoiQ-20" value="Fakta" style="swimlane;fontStyle=0;childLayout=stackLayout;horizontal=1;startSize=30;horizontalStack=0;resizeParent=1;resizeParentMax=0;resizeLast=0;collapsible=1;marginBottom=0;fillColor=#FFFF66;strokeColor=#d6b656;" vertex="1" parent="1">
          <mxGeometry x="285" y="300" width="140" height="180" as="geometry" />
        </mxCell>
        <mxCell id="XIhu3GL4m-_eAm_SvoiQ-21" value="id" style="text;strokeColor=#d6b656;fillColor=#FFFF66;align=left;verticalAlign=middle;spacingLeft=4;spacingRight=4;overflow=hidden;points=[[0,0.5],[1,0.5]];portConstraint=eastwest;rotatable=0;" vertex="1" parent="XIhu3GL4m-_eAm_SvoiQ-20">
          <mxGeometry y="30" width="140" height="30" as="geometry" />
        </mxCell>
        <mxCell id="XIhu3GL4m-_eAm_SvoiQ-22" value="ammount" style="text;strokeColor=#d6b656;fillColor=#FFFF66;align=left;verticalAlign=middle;spacingLeft=4;spacingRight=4;overflow=hidden;points=[[0,0.5],[1,0.5]];portConstraint=eastwest;rotatable=0;" vertex="1" parent="XIhu3GL4m-_eAm_SvoiQ-20">
          <mxGeometry y="60" width="140" height="30" as="geometry" />
        </mxCell>
        <mxCell id="XIhu3GL4m-_eAm_SvoiQ-23" value="dim_payments" style="text;strokeColor=#d6b656;fillColor=#FFFF66;align=left;verticalAlign=middle;spacingLeft=4;spacingRight=4;overflow=hidden;points=[[0,0.5],[1,0.5]];portConstraint=eastwest;rotatable=0;" vertex="1" parent="XIhu3GL4m-_eAm_SvoiQ-20">
          <mxGeometry y="90" width="140" height="30" as="geometry" />
        </mxCell>
        <mxCell id="XIhu3GL4m-_eAm_SvoiQ-33" value="dim_office" style="text;strokeColor=none;fillColor=#FFFF66;align=left;verticalAlign=middle;spacingLeft=4;spacingRight=4;overflow=hidden;points=[[0,0.5],[1,0.5]];portConstraint=eastwest;rotatable=0;" vertex="1" parent="XIhu3GL4m-_eAm_SvoiQ-20">
          <mxGeometry y="120" width="140" height="30" as="geometry" />
        </mxCell>
        <mxCell id="XIhu3GL4m-_eAm_SvoiQ-34" value="dim_product" style="text;strokeColor=none;fillColor=#FFFF66;align=left;verticalAlign=middle;spacingLeft=4;spacingRight=4;overflow=hidden;points=[[0,0.5],[1,0.5]];portConstraint=eastwest;rotatable=0;" vertex="1" parent="XIhu3GL4m-_eAm_SvoiQ-20">
          <mxGeometry y="150" width="140" height="30" as="geometry" />
        </mxCell>
        <mxCell id="XIhu3GL4m-_eAm_SvoiQ-26" value="" style="endArrow=classic;html=1;rounded=0;entryX=0.5;entryY=0;entryDx=0;entryDy=0;" edge="1" parent="1" target="XIhu3GL4m-_eAm_SvoiQ-20">
          <mxGeometry width="50" height="50" relative="1" as="geometry">
            <mxPoint x="360" y="210" as="sourcePoint" />
            <mxPoint x="360" y="330" as="targetPoint" />
          </mxGeometry>
        </mxCell>
        <mxCell id="XIhu3GL4m-_eAm_SvoiQ-39" value="" style="edgeStyle=entityRelationEdgeStyle;fontSize=12;html=1;endArrow=ERoneToMany;startArrow=ERzeroToOne;rounded=0;entryX=0;entryY=0.5;entryDx=0;entryDy=0;" edge="1" parent="1" target="XIhu3GL4m-_eAm_SvoiQ-23">
          <mxGeometry width="100" height="100" relative="1" as="geometry">
            <mxPoint x="180" y="300" as="sourcePoint" />
            <mxPoint x="390" y="260" as="targetPoint" />
          </mxGeometry>
        </mxCell>
        <mxCell id="XIhu3GL4m-_eAm_SvoiQ-40" value="" style="edgeStyle=entityRelationEdgeStyle;fontSize=12;html=1;endArrow=ERzeroToMany;startArrow=ERmandOne;rounded=0;entryX=1;entryY=0.5;entryDx=0;entryDy=0;exitX=0;exitY=0.5;exitDx=0;exitDy=0;" edge="1" parent="1" source="XIhu3GL4m-_eAm_SvoiQ-11" target="XIhu3GL4m-_eAm_SvoiQ-33">
          <mxGeometry width="100" height="100" relative="1" as="geometry">
            <mxPoint x="450" y="530" as="sourcePoint" />
            <mxPoint x="390" y="260" as="targetPoint" />
          </mxGeometry>
        </mxCell>
        <mxCell id="XIhu3GL4m-_eAm_SvoiQ-41" value="" style="edgeStyle=entityRelationEdgeStyle;fontSize=12;html=1;endArrow=ERzeroToMany;endFill=1;startArrow=ERzeroToMany;rounded=0;exitX=0;exitY=0.5;exitDx=0;exitDy=0;entryX=1;entryY=0.5;entryDx=0;entryDy=0;" edge="1" parent="1" source="XIhu3GL4m-_eAm_SvoiQ-14" target="XIhu3GL4m-_eAm_SvoiQ-34">
          <mxGeometry width="100" height="100" relative="1" as="geometry">
            <mxPoint x="510" y="310" as="sourcePoint" />
            <mxPoint x="300" y="285" as="targetPoint" />
          </mxGeometry>
        </mxCell>
      </root>
    </mxGraphModel>
  </diagram>
</mxfile>
